<?xml version="1.0" standalone="no"?>
<!DOCTYPE svg PUBLIC "-//W3C//DTD SVG 20010904//EN"
 "http://www.w3.org/TR/2001/REC-SVG-20010904/DTD/svg10.dtd">
<svg version="1.0" xmlns="http://www.w3.org/2000/svg"
 width="700.000000pt" height="700.000000pt" viewBox="0 0 700.000000 700.000000"
 preserveAspectRatio="xMidYMid meet">
<metadata>
Created by potrace 1.14, written by Peter Selinger 2001-2017
</metadata>
<g transform="translate(0.000000,700.000000) scale(0.100000,-0.100000)"
fill="#000000" stroke="none">
<path d="M239 6621 c-30 -31 -37 -67 -19 -101 6 -11 39 -40 75 -65 36 -26 65
-50 65 -54 0 -4 -27 -7 -60 -6 -33 1 -60 -1 -60 -4 1 -3 58 -46 128 -96 277
-195 273 -192 261 -223 -7 -16 -11 -106 -11 -219 0 -180 1 -195 22 -228 34
-56 49 -60 221 -65 11 0 16 -10 16 -33 0 -52 12 -86 36 -99 13 -7 68 -12 142
-13 l120 0 1 -293 c1 -259 -1 -292 -15 -296 -9 -3 -110 -5 -226 -5 -116 1
-221 -4 -235 -9 -31 -12 -65 -49 -75 -82 -4 -13 -7 -109 -7 -212 0 -173 2
-190 21 -222 27 -43 69 -60 151 -62 36 -1 70 -3 76 -3 5 -1 11 -19 11 -42 1
-50 19 -86 47 -95 11 -4 73 -6 137 -6 l116 1 0 -1287 0 -1287 -37 -17 c-44
-22 -77 -64 -88 -115 -4 -21 -7 -192 -6 -380 1 -302 3 -344 17 -367 24 -36 55
-53 106 -60 40 -5 54 -14 63 -38 3 -6 16 -9 68 -17 3 -1 7 -13 8 -28 2 -33 35
-63 67 -63 17 0 24 -7 28 -29 10 -50 29 -52 430 -49 353 3 367 4 381 23 13 17
15 75 16 385 0 405 1 398 -65 420 -23 8 -35 18 -35 30 0 23 -36 50 -67 50 -13
0 -23 6 -23 13 0 6 -7 25 -15 41 -14 26 -16 187 -16 1369 0 1217 1 1341 16
1363 9 14 26 29 38 33 12 5 650 8 1419 8 l1396 0 0 -1284 0 -1284 -31 -13
c-41 -17 -78 -61 -86 -100 -4 -17 -7 -191 -6 -387 0 -320 2 -358 18 -382 24
-36 57 -57 98 -60 20 -2 45 -13 57 -25 20 -20 39 -27 68 -23 6 1 14 -13 18
-31 8 -43 33 -68 68 -68 21 0 28 -5 28 -20 0 -10 10 -28 22 -40 21 -19 33 -20
389 -20 355 0 367 1 393 21 l26 20 0 368 0 368 -26 27 c-15 14 -34 26 -43 26
-9 1 -25 15 -36 33 -12 19 -34 37 -55 43 -19 7 -35 16 -35 20 -2 21 -17 54
-26 54 -5 0 -9 521 -9 1348 0 1474 -4 1378 57 1400 16 5 134 9 263 10 l235 0
22 27 c22 25 23 33 23 211 0 102 -4 193 -10 203 -12 24 -56 40 -100 38 -39 -2
-37 -6 -39 99 -1 46 -7 70 -24 95 -38 56 -59 61 -253 61 l-174 0 0 269 0 268
25 26 c31 30 7 27 280 30 272 3 250 1 275 27 19 20 20 34 20 195 0 132 -3 181
-14 202 l-15 28 244 189 c134 104 249 199 256 211 18 32 3 90 -28 110 -22 14
-51 17 -165 18 -76 0 -138 4 -138 8 -1 5 25 28 57 53 32 25 64 56 70 69 17 32
6 81 -25 105 -24 20 -59 20 -3154 20 l-3129 0 -30 -29z m2679 -1210 c9 -1 12
-67 12 -295 l0 -293 -460 -1 -460 -1 0 265 c0 171 4 273 11 285 22 42 47 44
475 43 225 -1 415 -2 422 -3z m1957 -291 l0 -295 -437 -2 -438 -1 -1 26 c-3
132 0 553 4 559 3 5 200 8 439 8 l433 0 0 -295z"/>
</g>
</svg>
